<svg fill="none" height="96" viewBox="0 0 105 96" width="105" xmlns="http://www.w3.org/2000/svg" xmlns:xlink="http://www.w3.org/1999/xlink"><linearGradient id="a" gradientUnits="userSpaceOnUse" x1="100.774" x2="58.5137" y1="62.5018" y2="4.18103"><stop offset="0" stop-color="#4d9b46"/><stop offset="1" stop-color="#5ab552"/></linearGradient><linearGradient id="b" gradientUnits="userSpaceOnUse" x1="86.3281" x2="72.0024" y1="75.4858" y2="48.9007"><stop offset="0" stop-color="#4d9b46" stop-opacity=".01"/><stop offset="1" stop-color="#4d9b46"/></linearGradient><linearGradient id="c"><stop offset="0" stop-color="#222" stop-opacity=".01"/><stop offset="1" stop-color="#222"/></linearGradient><linearGradient id="d" gradientUnits="userSpaceOnUse" x1="35.3133" x2="40.0443" xlink:href="#c" y1="17.2698" y2="12.6458"/><linearGradient id="e" gradientUnits="userSpaceOnUse" x1="46.4429" x2="48.9473" xlink:href="#c" y1="12.6127" y2="10.298"/><linearGradient id="f" gradientUnits="userSpaceOnUse" x1="25.5114" x2="28.0159" xlink:href="#c" y1="24.6974" y2="22.3827"/><linearGradient id="g"><stop offset="0" stop-color="#222"/><stop offset="1" stop-color="#222" stop-opacity=".01"/></linearGradient><linearGradient id="h" gradientUnits="userSpaceOnUse" x1="92.2587" x2="73.5898" xlink:href="#g" y1="22.4404" y2="11.4174"/><linearGradient id="i" gradientUnits="userSpaceOnUse" x1="49.0684" x2="46.6047" xlink:href="#g" y1="66.8786" y2="43.6963"/><linearGradient id="j" gradientUnits="userSpaceOnUse" x1="105.89" x2="92.3587" xlink:href="#g" y1="51.8024" y2="43.19"/><g clip-rule="evenodd" fill-rule="evenodd"><path d="m20.832 29.0516c-2.9003 1.6516-3.8671 5.3576-2.2155 8.2579l30.212 52.3272c1.6516 2.9004 5.3576 3.8672 8.2579 2.2156l31.3802-18.1272c2.9004-1.6516 3.8672-5.3576 2.2156-8.258l-30.212-52.3272c-1.6516-2.9003-5.3576-3.86711-8.258-2.2155z" fill="url(#a)"/><path d="m58.6172 94.4707c0 .0403.0402.0806.0402.1208.846 1.3697 2.6587 1.8128 4.0686 1.0071.0403 0 .0806-.0403.1208-.0403l5.116-2.9809c.0402 0 .0805-.0403.1208-.0403 1.3293-.8459 1.8127-2.5781 1.0473-3.9477l-.0805-.1208-1.5308-2.6184-2.6183 1.5307-5.2368 3.0212-2.6184 1.5308zm20.9067-12.0848c.0403.0403.0403.0805.0805.1208.846 1.3696 2.6587 1.8127 4.0686 1.0071.0403 0 .0806-.0403.1208-.0403l5.1159-2.9809c.0403 0 .0806-.0403.1209-.0403 1.3293-.8459 1.8127-2.5781 1.0473-3.9477l-.0805-.1208-1.5308-2.6184-2.6184 1.5307-5.2367 3.0212-2.6184 1.5308z" fill="#4d9b46"/><path d="m30.7416 9.35336c2.5378-1.45018 11.2791 7.45234 11.2791 7.45234l-10.4735 6.0424s-3.4643-11.9237-.8056-13.49474zm-7.4523 11.27914c1.2488-.7251 5.6396 3.706 5.6396 3.706l-5.2368 3.0212c0 .0403-1.7321-5.9618-.4028-6.7272zm20.947-12.08479c1.2488-.72508 5.6396 3.70599 5.6396 3.70599l-5.2368 3.0212c0 .0403-1.7321-5.96182-.4028-6.72719z" fill="#ced900"/><path d="m72.4744 33.8855-9.0233-15.5894c-.0403-8.1774 1.9739-15.06569 6.405-17.56322 8.0565-4.55194 21.1081 13.45442 19.6982 16.79792-.9265 2.2155-6.848-3.9477-7.976-2.0947-1.3696 2.2961 5.1562 8.419 3.9477 10.8763-1.1682 2.4169-7.6134-3.6657-8.7413-1.5308-.9668 1.853 4.7131 9.1442 3.3032 11.7223-1.1279 2.0947-7.6135-2.6184-7.6135-2.6184zm-41.8536 24.1696s-8.9831-15.5894-9.0234-15.5894c-7.0897-4.1088-14.01835-5.8007-18.40916-3.2226-7.97597 4.7131 1.08763 25.0156 4.71307 25.4587 2.37669.2819 0-7.8954 2.17529-7.976 2.6586-.0403 4.7131 8.6608 7.4523 8.8622 2.6586.1611.6445-8.4191 3.0615-8.3385 2.0947.0805 5.559 8.6607 8.4996 8.7413 2.3364.0806 1.5308-7.9357 1.5308-7.9357zm50.877-8.5399c14.8643 3.988 15.5088-9.829 20.1412-11.4805 4.633-1.6516 3.182 18.9328-11.0776 27.1505 0 .0403-9.0636-15.67-9.0636-15.67z" fill="#4d9b46"/><path d="m53.9444 86.4142 1.6516 2.86c.846 1.4502 2.6587 1.9336 4.1089 1.0877l26.1837-15.106c1.4502-.846 1.9336-2.6587 1.1279-4.1089l-1.6516-2.86c-5.8007-10.0304-19.0134-16.6771-27.6742-11.682-8.6608 5.0353-9.5067 19.7788-3.7463 29.8092z" fill="url(#b)"/><g fill="#fff"><path d="m53.9444 86.4141.1209.2014 31.3802-18.1272-.1209-.2014c-.9667-1.6918-2.1349-3.2629-3.4643-4.713l-30.2523 17.4826c.6043 1.853 1.3696 3.6658 2.3364 5.3576z" opacity=".25"/><path d="m77.0667 59.3845c-2.0141-1.4099-4.1894-2.5378-6.3646-3.3032l-20.0205 11.5611c-.4431 2.2961-.5237 4.7131-.3223 7.1703z" opacity=".35"/></g></g><path d="m43.9946 60.4318c-1.3294.4431-4.3908-4.9145-4.3908-4.9145l5.5187-1.7724c0 .0403.282 6.2438-1.1279 6.6869z" fill="#fff"/><path d="m67.7614 46.7357c1.0473-.9265-2.0544-6.2438-2.0544-6.2438l-4.27 3.9074c0-.0403 5.2368 3.3032 6.3244 2.3364z" fill="#fff"/><path d="m47.8617 23.8954c-2.9004 1.6919-1.4905 7.0495.7654 10.9972 2.2558 3.9477 6.4452 5.7604 9.3455 4.1088 2.9004-1.6516 3.3838-6.2035 1.128-10.1512-2.2962-3.9477-8.3386-6.6467-11.2389-4.9548z" fill="#fff"/><path d="m34.2461 31.7506c2.9004-1.6516 6.8884 2.2155 9.1442 6.1632s1.7724 8.4997-1.1279 10.1512c-2.9004 1.6919-7.0898-.1611-9.3456-4.1088-2.2961-3.9477-1.571-10.5541 1.3293-12.2056z" fill="#fff"/><path d="m49.8356 33.9258c-1.2488-2.1753-.5237-4.9548 1.6516-6.2035 2.1752-1.2488 4.9547-.5237 6.2035 1.6516 1.2488 2.1752.5237 4.9547-1.6516 6.2035-2.1752 1.289-4.9548.5237-6.2035-1.6516z" fill="#000"/><path d="m35.8962 55.7792c9.5579.7352 28.0361-10.0125 31.9175-18.443.126-.2736.0063-.5976-.2674-.7235-.2736-.126-.5976-.0063-.7236.2673-3.6896 8.0142-21.738 18.5118-30.8429 17.8115-.3003-.0231-.5625.2016-.5856.502-.0232.3004.2016.5626.502.5857z" fill="#000"/><path d="m51.6886 42.6268c-.6848-1.1682-.7251-2.3766-.1612-2.6989.564-.3223 1.5711.3223 2.2559 1.4905s.725 2.3766.1611 2.6989c-.564.3223-1.571-.3223-2.2558-1.4905z" fill="#000"/><path d="m46.8143 42.6671c-.564.3223-.5237 1.5308.1611 2.699.6848 1.1279 1.6919 1.8127 2.2559 1.4904.5639-.3222.5236-1.5307-.1612-2.6989s-1.6918-1.8127-2.2558-1.4905z" fill="#000"/><path d="m35.7769 36.7858c-2.1753 1.2488-2.9003 4.0283-1.6516 6.2036 1.2488 2.1752 4.0283 2.9406 6.2036 1.6516 2.1752-1.2488 2.9003-4.0283 1.6515-6.2036-1.2487-2.1752-4.0282-2.9003-6.2035-1.6516z" fill="#000"/><path d="m38.5564 38.8806c-.8057-.2014-1.3293-.846-1.1682-1.4099.1611-.564.9265-.846 1.7322-.6445.8056.2014 1.3293.8459 1.1682 1.4098-.1612.564-.9668.846-1.7322.6446z" fill="#fff"/><path d="m54.2263 29.817c-.8056-.2014-1.3293-.846-1.1682-1.4099.1611-.564.9265-.846 1.7322-.6445.8056.2014 1.3293.8459 1.1682 1.4098-.1612.564-.9265.846-1.7322.6446z" fill="#fff"/><g clip-rule="evenodd" fill-rule="evenodd"><path d="m79.5642 82.4463c-.0101-.0201-.0201-.0403-.0403-.0604l-1.5307-2.5378 2.6184-1.5308 5.2367-3.0212 2.6184-1.5307 1.5307 2.6184.0806.1208c.7654 1.3696.282 3.1018-1.0474 3.9477-.0201 0-.0402.0101-.0604.0201-.0201.0101-.0403.0202-.0604.0202l-5.1159 2.9809c-.0201 0-.0403.0101-.0604.0201-.0202.0101-.0403.0202-.0605.0202-1.4098.8056-3.2226.3625-4.0685-1.0071-.0201-.0201-.0302-.0403-.0403-.0604zm-20.9268 12.0848c-.0101-.0201-.0202-.0403-.0202-.0604l-1.571-2.5378 2.6184-1.5308 5.2367-3.0212 2.6184-1.5307 1.5307 2.6184.0806.1208c.7654 1.3696.282 3.1018-1.0473 3.9477-.0202 0-.0403.0101-.0605.0202-.0201.01-.0402.0201-.0604.0201l-5.1159 2.9809c-.0201 0-.0403.0101-.0604.0202-.0202.01-.0403.0201-.0604.0201-1.4099.8057-3.2227.3626-4.0686-1.0071 0-.0201-.0101-.0402-.0201-.0604z" fill="#000" opacity=".1"/><path d="m30.7416 9.3534c-.2417.12084-.4028.32226-.5639.60424 2.9809.28196 9.2247 8.33856 9.2247 8.33856l2.6184-1.5308c0 .0403-8.7414-8.86218-11.2792-7.412z" fill="url(#d)" opacity=".15"/><path d="m44.2363 8.5477c-.1208.08057-.2417.20142-.3222.40283 1.4904.28198 4.3908 4.22967 4.3908 4.22967l1.571-.8862s-4.3908-4.47139-5.6396-3.7463z" fill="url(#e)" opacity=".15"/><path d="m23.2893 20.6325c-.1208.0806-.2417.2015-.3223.4029 1.4905.2819 4.3909 4.2297 4.3909 4.2297l1.571-.8863s-4.3506-4.4713-5.6396-3.7463z" fill="url(#f)" opacity=".15"/><path d="m72.4745 33.8855s6.4855 4.7131 7.6134 2.6587c1.4099-2.5781-4.3102-9.8693-3.3032-11.7223 1.1279-2.135 7.5732 3.9477 8.7414 1.5308 1.2084-2.4976-5.3173-8.6205-3.9477-10.8764 1.1279-1.853 7.0494 4.3103 7.9759 2.0947.7251-1.6918-2.2961-7.2106-6.5258-11.60136 3.1018 3.82685 2.699 6.76746 2.0947 8.21766-.9265 2.2155-4.4713-2.8601-5.6395-1.0071-1.3696 2.2961 2.7795 7.3315 1.571 9.829-1.1682 2.417-5.277-2.5781-6.405-.4431-.9667 1.853 2.3364 8.0565.9668 10.6346-.8056 1.5308-2.1752.4431-4.1088-.8056z" fill="url(#h)" opacity=".15"/><path d="m30.6208 58.0551s.8459 7.976-1.5308 7.9357c-2.9003-.0805-6.4049-8.6607-8.4996-8.7413-2.417-.0806-.3626 8.5399-3.0615 8.3385-2.7392-.2014-4.7936-8.9025-7.4523-8.8622-2.17526.0403.2014 8.258-2.17526 7.976-1.853-.2417-5.07562-5.5993-6.80777-11.4403 1.77243 4.5922 4.51166 5.7201 6.0424 5.9216 2.37668.2819-.2417-5.3174 1.93357-5.3576 2.65866-.0403 4.95476 6.0826 7.73426 6.2841 2.6587.1611.4028-5.841 2.8198-5.7605 2.0947.0806 5.841 6.0827 8.7413 6.1633 1.7322.0403 1.4905-1.6919 1.3697-3.9477z" fill="url(#i)" opacity=".15"/><path d="m87.4999 59.9484 3.0615 5.2771c14.2596-8.2177 15.7506-28.8022 11.0776-27.1506-.121.0403-.242.1209-.362.1612 3.222 5.559-5.64 18.0869-13.7771 21.7123z" fill="url(#j)" opacity=".15"/></g></svg>