<?xml version="1.0" encoding="UTF-8"?>
<svg width="64px" height="64px" viewBox="0 0 64 64" version="1.1" xmlns="http://www.w3.org/2000/svg" xmlns:xlink="http://www.w3.org/1999/xlink">
    <!-- Generator: Sketch 42 (36781) - http://www.bohemiancoding.com/sketch -->
    <title>eventstore-avatar</title>
    <desc>Created with Sketch.</desc>
    <defs></defs>
    <g id="Brands" stroke="none" stroke-width="1" fill="none" fill-rule="evenodd">
        <g id="Event-Store-avatar">
            <g id="eventstore-avatar">
                <rect id="Rectangle-3" fill="#5AB552" x="0" y="0" width="64" height="64"></rect>
                <path d="M24.0283008,20.5466754 C24.597249,20.2114526 25.1921861,19.9150376 25.8129366,19.6572549 C27.1218685,19.1153494 28.470662,18.7781949 29.8598437,18.6463184 L31.3649222,20.3596601 L30.6784968,22.1225213 C29.322855,22.3936497 28.0471117,22.8860356 26.8507402,23.6000304 C26.7634663,23.6520084 26.6772461,23.7053912 26.5919039,23.7601788 L26.3378088,21.4390811 L24.0283008,20.5466754 Z M23.3719032,20.957758 L25.7604318,21.8819475 L26.0103124,24.1575645 C24.7173602,25.1096746 23.7090577,26.3241331 22.987512,27.8011154 C22.9230664,27.9326408 22.8623083,28.0646929 22.8047111,28.1969207 L21.137377,26.1602971 L18.3985238,26.7383765 C19.0809104,25.2682426 19.9977247,23.9524622 21.1491423,22.7910353 C21.8357433,22.0986395 22.5769563,21.4877227 23.3719032,20.957758 Z M39.0882176,37.0330014 C39.3442443,36.6010223 39.5563706,36.1614923 39.7244211,35.7142358 L42.3103255,38.8452066 L46.6492575,37.9099542 C46.4014841,38.594448 46.1068251,39.2641912 45.766861,39.9197108 C44.8744553,41.6395497 43.6979268,43.1325118 42.2369241,44.3992994 C40.7530933,45.6843496 39.0769792,46.6224116 37.2070011,47.2119051 C37.1697737,47.2236704 37.1325462,47.2349089 37.0953187,47.2466741 L33.8793569,44.5273128 L34.7224187,40.8245842 C34.7434908,40.8159797 34.7643874,40.8071997 34.7854595,40.798244 C36.6275169,40.0159403 38.0616526,38.7603912 39.0882176,37.0330014 Z M44.520092,22.4003225 C44.7854255,22.7666268 45.0344281,23.1466279 45.2693826,23.5397992 C46.2603006,25.2034457 46.9451456,26.9838671 47.3239176,28.8801853 C47.6998799,30.7614018 47.7530871,32.6515739 47.4838903,34.5498237 C47.3548234,35.4625992 47.1544623,36.3518441 46.8826316,37.2191388 L42.5500212,38.1510547 L39.9518247,35.0072651 C40.2622878,33.8528623 40.2891548,32.6491155 40.0329525,31.396376 C39.7291623,29.9109648 39.0815448,28.6429479 38.0899244,27.5930279 L42.7718056,27.0384791 L44.520092,22.4003225 Z M18.096314,27.4376208 L20.8948716,26.8477761 L22.5437676,28.8605179 C22.0390895,30.305014 21.9126566,31.8078098 22.163942,33.3680271 C22.234885,33.8112448 22.3325193,34.2425215 22.4557914,34.6609793 L19.5011243,33.986846 L17.3782804,36.4949591 C17.1236586,35.3841054 16.9975768,34.2483163 17.0000353,33.0884699 C17.0038985,31.1547486 17.3623007,29.2882826 18.0757687,27.4903012 C18.0824415,27.4725654 18.08929,27.4548297 18.096314,27.4376208 Z M22.6879363,35.3540776 C23.1123646,36.4770478 23.7376807,37.5065981 24.5637091,38.4425529 C25.1881473,39.1495236 25.8838795,39.7353295 26.6503791,40.2003217 L23.7166086,41.8788943 L23.8753521,45.7008561 C22.9081403,45.0953829 22.0192466,44.3762957 21.2079687,43.5439456 C19.8472344,42.148091 18.804514,40.5453782 18.0799831,38.7351046 C17.8826073,38.2402602 17.7119228,37.7401478 17.5689834,37.2345917 L19.7339716,34.6794175 L22.6879363,35.3540776 Z M27.2895678,40.552929 C27.9206787,40.8667285 28.5958657,41.1062487 29.3140749,41.2714895 C30.9238118,41.6446422 32.4928092,41.5816013 34.0210672,41.0844741 L33.1860831,44.7608625 L36.3711391,47.4535325 C34.7779087,47.8702343 33.1497336,48.0484696 31.4876675,47.9887652 C29.5479758,47.9257243 27.6866022,47.5151685 25.9016153,46.7551662 C25.423453,46.5521711 24.9616216,46.3265235 24.514892,46.0785744 L24.3564996,42.2311504 L27.2895678,40.552929 Z M44.0721331,21.8120582 L42.3199836,26.4611021 L37.5025381,27.0309282 C37.3617059,26.9090609 37.216308,26.7910569 37.0649397,26.6762136 C35.4931327,25.4821249 33.7130625,24.7828806 31.7259584,24.5790076 C31.2767704,24.5358096 30.8377672,24.5228152 30.4085977,24.5391461 L32.0868191,20.2323491 L28.4622331,16.1046655 C29.5521902,16.0105432 30.6402157,15.9799886 31.7259584,16.0126504 C32.3802488,16.0291569 33.0282175,16.0795545 33.6719718,16.1629651 C34.5778988,16.2804424 35.4738165,16.4648237 36.3591982,16.7152311 C38.2319858,17.2422106 39.9397082,18.0973888 41.4818387,19.2812926 C42.4548453,20.0283004 43.3182768,20.8715378 44.0721331,21.8120582 Z" id="Combined-Shape" fill="#FFFFFF"></path>
            </g>
        </g>
    </g>
</svg>